<?xml version="1.0" encoding="utf-8"?>
<!-- Generator: Adobe Illustrator 21.0.0, SVG Export Plug-In . SVG Version: 6.00 Build 0)  -->
<svg version="1.1" id="Capa_1" xmlns="http://www.w3.org/2000/svg" xmlns:xlink="http://www.w3.org/1999/xlink" x="0px" y="0px"
	 viewBox="0 0 409.2 346" style="enable-background:new 0 0 409.2 346;" xml:space="preserve">
<style type="text/css">
	.st0{fill:#FFFFFF;}
</style>
<g>
	<path class="st0" d="M205.4,6.8c-92.2,0-167.2,75-167.2,167.2c0,92.2,75,167.2,167.2,167.2c92.2,0,167.2-75,167.2-167.2
		C372.6,81.8,297.6,6.8,205.4,6.8L205.4,6.8z M247,179.8h-27.2v97h-40.3v-97h-19.2v-34.3h19.2v-22.2c0-15.8,7.5-40.7,40.7-40.7
		l29.9,0.1v33.2h-21.7c-3.6,0-8.6,1.8-8.6,9.3v20.2h30.7L247,179.8z M247,179.8"/>
</g>
</svg>
